<?xml version="1.0" encoding="UTF-8"?>
<!DOCTYPE svg PUBLIC "-//W3C//DTD SVG 1.1//EN" "http://www.w3.org/Graphics/SVG/1.1/DTD/svg11.dtd">
<svg version="1.1" xmlns="http://www.w3.org/2000/svg" xmlns:xlink="http://www.w3.org/1999/xlink" x="0" y="0" width="850" height="870" viewBox="0, 0, 850, 870">
  <g id="Background">
    <rect x="0" y="0" width="850" height="870" fill="#000000" fill-opacity="0"/>
  </g>
  <g id="Layer_1">
    <path d="M202.81,209.929 L202.81,208.473 L205.308,206.418 L250.906,206.418 L251.193,206.654 L251.193,201.888 L260.862,198.822 L260.862,219.58 L251.193,216.514 L251.193,211.748 L250.906,211.984 L205.308,211.984 L202.81,209.929 z M560.478,289.522 C548.036,370.591 590.609,383.527 583.548,481.954 L583.548,482.166 C583.548,487.452 579.224,491.777 573.937,491.777 L490.243,491.777 C484.958,491.777 480.632,487.452 480.632,482.166 L480.632,477.58 C480.632,472.294 484.958,467.969 490.243,467.969 L498.865,467.969 C501.152,382.089 463.277,366.582 475.103,289.522 L389.222,289.522 L344.007,235.679 L330.917,235.679 L330.917,182.723 L344.007,182.723 L389.222,128.879 L622.415,128.879 C628.745,130.187 636.134,134.991 636.134,150.297 C636.134,177.069 636.134,209.201 636.134,209.201 C636.134,209.201 636.134,241.332 636.134,268.104 C636.134,283.411 628.745,288.214 622.415,289.522 L560.478,289.522 z M266.601,209.201 L266.601,185.453 L273.026,185.453 L298.73,172.602 L324.853,172.602 L324.853,245.8 L298.73,245.8 L273.026,232.949 L266.601,232.949 L266.601,209.201" fill="#A8BAF0"/>
    <path d="M461.253,293.266 L445.853,324.74 C440.624,335.425 446.482,336.984 456.624,341.727 L471.116,348.504 C468.302,333.166 467.493,315.864 470.96,293.266 L461.253,293.266" fill="#A8BAF0"/>
    <path d="M202.81,484.989 L202.81,467.162 L274.292,467.162 C276.222,467.162 220.849,465.443 202.81,464.886 L202.81,450.287 L274.292,450.287 C276.222,450.287 220.849,448.568 202.81,448.011 L202.81,433.412 L274.292,433.412 C276.222,433.412 220.849,431.693 202.81,431.136 L202.81,416.537 L274.292,416.537 C276.222,416.537 220.849,414.818 202.81,414.261 L202.81,399.662 L274.292,399.662 C276.222,399.662 220.849,397.943 202.81,397.386 L202.81,382.787 L274.292,382.787 C276.222,382.787 220.849,381.068 202.81,380.511 L202.81,365.912 L274.292,365.912 C276.222,365.912 220.849,364.193 202.81,363.635 L202.81,349.037 L274.292,349.037 C276.222,349.037 220.849,347.318 202.81,346.761 L202.81,332.162 L274.292,332.162 C276.222,332.162 220.849,330.443 202.81,329.886 L202.81,315.287 L274.292,315.287 C276.222,315.287 220.849,313.568 202.81,313.01 L202.81,295.01 L282.388,295.01 L282.388,484.989 L202.81,484.989" fill="#A8BAF0"/>
    <path d="M354.118,491.777 L378.974,491.777 C400.195,414.906 422.31,418.425 547.769,427.628 C621.974,433.071 640.829,389.999 640.829,389.999 C640.829,389.999 621.974,346.928 547.769,352.371 C422.31,361.574 400.195,365.093 378.974,288.222 L287.083,288.222 L287.083,491.777 L354.118,491.777" fill="#FFFFFF"/>
    <path d="M770.806,93.344 L759.589,93.344 L748.732,130.318 C748.732,130.318 759.768,160.67 759.768,185.504 L759.768,351.062 L781.843,351.062 L781.843,185.504 C781.843,160.67 792.88,130.318 792.88,130.318 L782.025,93.344 L770.806,93.344" fill="#FFFFFF"/>
    <path d="M770.806,484.945 C770.806,484.945 794.536,485.772 797.296,464.25 C801.075,434.769 775.534,405.219 797.501,376.78 L800.606,376.78 C806.374,376.78 811.091,372.061 811.091,366.295 C811.091,360.528 806.374,355.81 800.606,355.81 L741.005,355.81 C735.239,355.81 730.521,360.528 730.521,366.295 C730.521,372.061 735.239,376.78 741.005,376.78 L744.112,376.78 C766.079,405.219 740.538,434.769 744.318,464.25 C747.075,485.772 770.806,484.945 770.806,484.945" fill="#A8BAF0"/>
    <path d="M702.896,104.815 L711.054,467.628 C711.503,487.598 696.495,489.802 684.147,491.777 C671.8,489.802 656.792,487.598 657.241,467.628 L665.397,104.815 L702.896,104.815" fill="#FFFFFF"/>
    <path d="M575.743,24.325 C584.712,25.465 593.687,26.588 602.653,27.72 C611.624,28.85 620.603,29.982 629.576,31.114 L629.576,29.707 C629.576,26.747 631.997,24.325 634.958,24.325 L734.318,24.325 C737.278,24.325 739.7,26.747 739.7,29.707 L739.7,36.105 C766.257,38.455 813.288,48.695 832.946,90.807 C833.204,93.867 830.554,94.087 829.665,93.344 C802.628,70.691 772.439,65.102 739.7,65.966 L739.7,93.877 C739.7,96.838 737.278,99.26 734.318,99.26 L634.958,99.26 C631.997,99.26 629.576,96.838 629.576,93.877 L629.576,92.477 C620.603,93.616 611.624,94.748 602.653,95.88 C593.687,97.012 584.712,98.135 575.743,99.259 C575.743,86.775 575.743,74.284 575.743,61.8 C575.743,49.315 575.743,36.816 575.743,24.325" fill="#A8BAF0"/>
    <path d="M180.765,103.217 L180.765,38.594 L215.728,38.594 L215.728,17.4 C215.728,17.4 226.89,22.994 226.89,38.594 L226.89,50.318 L200.937,50.318 L200.937,58.855 L284.462,58.855 L284.462,103.217 L200.937,103.217 L200.937,117.854 L212.366,117.854 L212.366,161.694 L203.02,161.694 L194.321,120.893 L180.765,120.893 L180.765,103.217 z M361.953,58.855 L511.634,58.855 L511.634,103.216 L361.953,103.216 z M545.292,58.855 L550.849,58.855 L550.849,103.216 L545.292,103.216 z" fill="#FFFFFF"/>
    <path d="M515.075,51.338 L541.849,51.338 L541.849,110.735 L515.075,110.735 z" fill="#FFFFFF"/>
    <path d="M276.94,161.694 L276.94,117.854 L288.372,117.854 L288.372,50.318 L262.417,50.318 L262.417,38.594 C262.417,22.994 273.579,17.4 273.579,17.4 L273.579,38.594 L308.544,38.594 L308.544,45.532 L358.077,45.532 L358.077,113.954 L308.544,113.954 L308.544,120.893 L294.985,120.893 L286.288,161.694 L276.94,161.694" fill="#FFFFFF"/>
    <path d="M175.769,481.471 C175.413,487.12 170.546,491.413 164.896,491.059 C159.247,490.704 154.954,485.836 155.308,480.186 C155.343,479.644 165.349,331.346 127.362,212.569 C127.462,212.498 118.526,219.27 106.499,219.27 C94.615,219.27 85.603,212.546 85.636,212.569 C47.648,331.346 57.655,479.644 57.689,480.186 C58.044,485.836 53.751,490.704 48.101,491.059 C42.453,491.413 37.583,487.12 37.23,481.471 C37.2,481.019 23.425,380.18 41.747,276.948 C47.398,245.121 57.464,213.383 70.687,184.003 L70.689,184.02 C70.685,183.832 70.681,183.643 70.681,183.453 C70.681,163.672 86.716,147.635 106.499,147.635 C126.28,147.635 142.317,163.672 142.317,183.453 C142.317,183.643 142.312,183.831 142.31,184.019 L142.31,184.002 C155.534,213.382 165.601,245.121 171.249,276.948 C189.572,380.18 175.798,481.019 175.769,481.471" fill="#A8BAF0"/>
    <path d="M105.734,143.301 L99.726,112.955 C93.49,112.241 87.325,104.392 85.249,93.906 C83.173,83.421 85.882,73.814 91.376,70.778 L85.991,43.576 L77.62,45.233 L62.464,72.322 L61.144,133.249 L70.267,166.111 C76.636,152.83 90.091,143.593 105.734,143.301" fill="#FFFFFF"/>
    <path d="M107.263,143.301 L113.271,112.955 C119.507,112.241 125.671,104.392 127.747,93.906 C129.823,83.421 127.114,73.814 121.62,70.778 L127.007,43.576 L135.376,45.233 L150.532,72.322 L151.853,133.249 L142.73,166.111 C136.36,152.83 122.905,143.593 107.263,143.301" fill="#FFFFFF"/>
    <path d="M32.234,530.963 L809.583,530.963 L809.583,540.913 L32.234,540.913 z" fill="#FFFFFF"/>
    <path d="M99.152,606.178 L32.234,606.178 L32.234,571.125 L99.152,571.125 z M99.152,845.172 L32.234,845.172 L32.234,620.517 L99.152,620.517 z" fill="#FFFFFE"/>
    <path d="M288.356,781.042 Q288.356,817.289 269.635,831.231 Q250.914,845.172 204.708,845.172 L122.255,845.172 L122.255,571.125 L206.302,571.125 Q245.337,571.125 264.258,588.054 Q283.178,604.983 283.178,640.832 Q283.178,670.308 277.602,679.867 Q270.83,691.419 245.736,696.995 Q270.83,702.97 279.593,715.916 Q288.356,728.861 288.356,755.549 z M216.658,644.018 Q216.658,626.094 212.277,622.11 Q207.895,618.127 193.555,618.127 L193.555,678.673 Q198.733,678.673 200.725,678.673 Q211.48,678.673 214.069,673.096 Q216.658,667.519 216.658,644.018 z M216.658,772.677 L216.658,746.786 Q216.658,729.26 213.272,725.476 Q209.887,721.692 193.555,721.692 L193.555,797.771 Q208.293,797.771 212.476,793.589 Q216.658,789.407 216.658,772.677 z" fill="#A8BAF0"/>
    <path d="M449.279,845.172 L386.344,845.172 L387.539,826.451 Q380.768,836.807 372.602,841.189 Q364.436,845.57 351.292,845.57 Q348.105,845.57 346.512,845.57 Q336.952,845.57 330.579,844.176 Q324.206,842.782 319.027,837.206 Q311.061,828.442 309.069,817.09 Q307.078,805.738 307.078,783.432 Q307.078,776.262 307.078,772.279 L307.078,620.517 L369.216,620.517 L369.216,794.187 Q369.216,801.755 371.009,805.539 Q372.801,809.323 377.581,809.323 Q384.751,809.323 386.742,801.755 Q387.539,798.568 387.539,790.602 L387.539,620.517 L449.279,620.517 z" fill="#A8BAF0"/>
    <path d="M535.716,606.178 L468.797,606.178 L468.797,571.125 L535.716,571.125 z M535.716,845.172 L468.797,845.172 L468.797,620.517 L535.716,620.517 z" fill="#A8BAF0"/>
    <path d="M622.949,845.172 L559.217,845.172 L559.217,571.125 L622.949,571.125 z" fill="#A8BAF0"/>
    <path d="M790.245,845.172 L728.903,845.172 L728.903,828.841 Q719.741,838.4 710.779,841.985 Q701.817,845.57 689.469,845.57 Q677.917,845.57 668.756,841.985 Q659.594,838.4 654.416,830.434 Q650.831,824.061 649.437,814.7 Q648.043,805.34 648.043,792.593 Q648.043,787.813 648.043,785.423 L648.043,680.266 Q648.043,657.96 650.035,646.607 Q652.026,635.255 661.188,626.89 Q663.976,624.5 668.158,623.106 Q672.341,621.712 679.909,621.712 Q686.681,621.712 689.867,621.712 Q704.207,621.712 712.572,623.903 Q720.936,626.094 728.903,634.857 L728.903,571.125 L790.245,571.125 z M728.903,781.042 L728.903,677.079 Q728.903,665.13 727.31,660.748 Q725.716,656.366 718.945,656.366 Q709.385,656.366 709.385,670.706 L709.385,787.017 Q709.385,799.763 710.58,804.543 Q711.775,809.323 718.148,809.323 Q726.513,809.323 727.708,800.161 Q728.903,791 728.903,781.042 z" fill="#A8BAF0"/>
  </g>
</svg>
